HIERARCHY
ROOT Hips
{
  OFFSET -451.963 92.2812 1433.7
  CHANNELS 6 Xposition Yposition Zposition Zrotation Xrotation Yrotation
  JOINT Spine
  {
    OFFSET -1.51497e-05 8 8.99659e-05
    CHANNELS 6 Xposition Yposition Zposition Zrotation Xrotation Yrotation
    JOINT Spine1
    {
      OFFSET 0.00092412 8 0.00118329
      CHANNELS 6 Xposition Yposition Zposition Zrotation Xrotation Yrotation
      JOINT Spine2
      {
        OFFSET 2.53914e-05 8 3.87681e-05
        CHANNELS 6 Xposition Yposition Zposition Zrotation Xrotation Yrotation
        JOINT Spine3
        {
          OFFSET 0 8 0
          CHANNELS 6 Xposition Yposition Zposition Zrotation Xrotation Yrotation
          JOINT Neck
          {
            OFFSET 1.47033e-05 17 -8.81466e-05
            CHANNELS 6 Xposition Yposition Zposition Zrotation Xrotation Yrotation
            JOINT Head
            {
              OFFSET 0.00157594 10.8 0.00441236
              CHANNELS 6 Xposition Yposition Zposition Zrotation Xrotation Yrotation
              End Site
              {
                OFFSET 0 20.25 0
              }
            }
          }
          JOINT LeftShoulder
          {
            OFFSET 5 17 -0.000100653
            CHANNELS 6 Xposition Yposition Zposition Zrotation Xrotation Yrotation
            JOINT LeftShoulder2
            {
              OFFSET 6.45 0 0
              CHANNELS 6 Xposition Yposition Zposition Zrotation Xrotation Yrotation
              JOINT LeftArm
              {
                OFFSET 6.44998 8.34878e-05 -3.00093e-05
                CHANNELS 6 Xposition Yposition Zposition Zrotation Xrotation Yrotation
                JOINT LeftForeArm
                {
                  OFFSET 0.0124623 -32.4188 -2.01807
                  CHANNELS 6 Xposition Yposition Zposition Zrotation Xrotation Yrotation
                  JOINT LeftHand
                  {
                    OFFSET -0.000832934 -25.6523 2.00254
                    CHANNELS 6 Xposition Yposition Zposition Zrotation Xrotation Yrotation
                    JOINT LeftHandThumb1
                    {
                      OFFSET -0.499829 -1.49949 2.64891
                      CHANNELS 6 Xposition Yposition Zposition Zrotation Xrotation Yrotation
                      JOINT LeftHandThumb2
                      {
                        OFFSET 0.00470755 -3.80342 3.68929
                        CHANNELS 6 Xposition Yposition Zposition Zrotation Xrotation Yrotation
                        JOINT LeftHandThumb3
                        {
                          OFFSET -0.00015601 -3.00049 2.70051
                          CHANNELS 6 Xposition Yposition Zposition Zrotation Xrotation Yrotation
                          End Site
                          {
                            OFFSET 0.000819371 -2.29953 1.79812
                          }
                        }
                      }
                    }
                    JOINT LeftHandIndex
                    {
                      OFFSET -0.00243816 -1.9023 1.60369
                      CHANNELS 6 Xposition Yposition Zposition Zrotation Xrotation Yrotation
                      JOINT LeftHandIndex1
                      {
                        OFFSET -0.0126097 -8.3097 1.91802
                        CHANNELS 6 Xposition Yposition Zposition Zrotation Xrotation Yrotation
                        JOINT LeftHandIndex2
                        {
                          OFFSET 5.88179e-05 -4.49964 -0.000702867
                          CHANNELS 6 Xposition Yposition Zposition Zrotation Xrotation Yrotation
                          JOINT LeftHandIndex3
                          {
                            OFFSET 0.00121572 -3.40603 0.0108941
                            CHANNELS 6 Xposition Yposition Zposition Zrotation Xrotation Yrotation
                            End Site
                            {
                              OFFSET -0.000347439 -2.599 0.000421216
                            }
                          }
                        }
                      }
                    }
                    JOINT LeftHandMiddle
                    {
                      OFFSET -0.246876 -2.19788 0.39493
                      CHANNELS 6 Xposition Yposition Zposition Zrotation Xrotation Yrotation
                      JOINT LeftHandMiddle1
                      {
                        OFFSET -0.00740961 -8.30724 1.01152
                        CHANNELS 6 Xposition Yposition Zposition Zrotation Xrotation Yrotation
                        JOINT LeftHandMiddle2
                        {
                          OFFSET -0.00022778 -4.64991 0.000146751
                          CHANNELS 6 Xposition Yposition Zposition Zrotation Xrotation Yrotation
                          JOINT LeftHandMiddle3
                          {
                            OFFSET -0.00145985 -3.30244 -0.000312756
                            CHANNELS 6 Xposition Yposition Zposition Zrotation Xrotation Yrotation
                            End Site
                            {
                              OFFSET -2.41759e-05 -2.69999 0.000151037
                            }
                          }
                        }
                      }
                    }
                    JOINT LeftHandRing
                    {
                      OFFSET -0.497958 -2.14651 -0.80306
                      CHANNELS 6 Xposition Yposition Zposition Zrotation Xrotation Yrotation
                      JOINT LeftHandRing1
                      {
                        OFFSET 0.00298284 -7.75109 -0.205013
                        CHANNELS 6 Xposition Yposition Zposition Zrotation Xrotation Yrotation
                        JOINT LeftHandRing2
                        {
                          OFFSET -0.000613432 -3.79963 0.000259359
                          CHANNELS 6 Xposition Yposition Zposition Zrotation Xrotation Yrotation
                          JOINT LeftHandRing3
                          {
                            OFFSET -0.000440049 -3.39958 -0.000600404
                            CHANNELS 6 Xposition Yposition Zposition Zrotation Xrotation Yrotation
                            End Site
                            {
                              OFFSET 0.000374347 -2.59972 0.000499087
                            }
                          }
                        }
                      }
                    }
                    JOINT LeftHandPinky
                    {
                      OFFSET -0.746642 -1.74584 -1.85469
                      CHANNELS 6 Xposition Yposition Zposition Zrotation Xrotation Yrotation
                      JOINT LeftHandPinky1
                      {
                        OFFSET -2.29029e-05 -7.15019 -0.999884
                        CHANNELS 6 Xposition Yposition Zposition Zrotation Xrotation Yrotation
                        JOINT LeftHandPinky2
                        {
                          OFFSET 0.000451998 -2.99986 -0.000197996
                          CHANNELS 6 Xposition Yposition Zposition Zrotation Xrotation Yrotation
                          JOINT LeftHandPinky3
                          {
                            OFFSET -0.00103002 -2.34694 -0.0046939
                            CHANNELS 6 Xposition Yposition Zposition Zrotation Xrotation Yrotation
                            End Site
                            {
                              OFFSET -0.000654765 -2.09948 -0.000475546
                            }
                          }
                        }
                      }
                    }
                  }
                }
              }
            }
          }
          JOINT RightShoulder
          {
            OFFSET -5.00009 17 -2.88823e-05
            CHANNELS 6 Xposition Yposition Zposition Zrotation Xrotation Yrotation
            JOINT RightShoulder2
            {
              OFFSET -6.45 0 0
              CHANNELS 6 Xposition Yposition Zposition Zrotation Xrotation Yrotation
              JOINT RightArm
              {
                OFFSET -6.44997 -8.93521e-05 -0.000345996
                CHANNELS 6 Xposition Yposition Zposition Zrotation Xrotation Yrotation
                JOINT RightForeArm
                {
                  OFFSET -0.000101542 -32.4 -2.00002
                  CHANNELS 6 Xposition Yposition Zposition Zrotation Xrotation Yrotation
                  JOINT RightHand
                  {
                    OFFSET -0.00401545 -25.6541 2.00306
                    CHANNELS 6 Xposition Yposition Zposition Zrotation Xrotation Yrotation
                    JOINT RightHandThumb1
                    {
                      OFFSET 0.500817 -1.5039 2.64754
                      CHANNELS 6 Xposition Yposition Zposition Zrotation Xrotation Yrotation
                      JOINT RightHandThumb2
                      {
                        OFFSET -0.00444818 -3.80555 3.70522
                        CHANNELS 6 Xposition Yposition Zposition Zrotation Xrotation Yrotation
                        JOINT RightHandThumb3
                        {
                          OFFSET 0.00263326 -2.99951 2.69624
                          CHANNELS 6 Xposition Yposition Zposition Zrotation Xrotation Yrotation
                          End Site
                          {
                            OFFSET -0.000676751 -2.29824 1.80042
                          }
                        }
                      }
                    }
                    JOINT RightHandIndex
                    {
                      OFFSET 0.000176011 -1.89877 1.59999
                      CHANNELS 6 Xposition Yposition Zposition Zrotation Xrotation Yrotation
                      JOINT RightHandIndex1
                      {
                        OFFSET -0.00320222 -8.29979 1.9039
                        CHANNELS 6 Xposition Yposition Zposition Zrotation Xrotation Yrotation
                        JOINT RightHandIndex2
                        {
                          OFFSET -0.000163783 -4.50174 -0.00316724
                          CHANNELS 6 Xposition Yposition Zposition Zrotation Xrotation Yrotation
                          JOINT RightHandIndex3
                          {
                            OFFSET 0.000279594 -3.40034 0.000375192
                            CHANNELS 6 Xposition Yposition Zposition Zrotation Xrotation Yrotation
                            End Site
                            {
                              OFFSET -5.75757e-05 -2.60393 -0.00473674
                            }
                          }
                        }
                      }
                    }
                    JOINT RightHandMiddle
                    {
                      OFFSET 0.24953 -2.19582 0.401648
                      CHANNELS 6 Xposition Yposition Zposition Zrotation Xrotation Yrotation
                      JOINT RightHandMiddle1
                      {
                        OFFSET 0.00221927 -8.29515 0.999491
                        CHANNELS 6 Xposition Yposition Zposition Zrotation Xrotation Yrotation
                        JOINT RightHandMiddle2
                        {
                          OFFSET 0.0116118 -4.64301 -0.00349329
                          CHANNELS 6 Xposition Yposition Zposition Zrotation Xrotation Yrotation
                          JOINT RightHandMiddle3
                          {
                            OFFSET -0.00171851 -3.29882 0.000997285
                            CHANNELS 6 Xposition Yposition Zposition Zrotation Xrotation Yrotation
                            End Site
                            {
                              OFFSET -0.0109822 -2.69409 0.0103475
                            }
                          }
                        }
                      }
                    }
                    JOINT RightHandRing
                    {
                      OFFSET 0.501346 -2.14388 -0.799998
                      CHANNELS 6 Xposition Yposition Zposition Zrotation Xrotation Yrotation
                      JOINT RightHandRing1
                      {
                        OFFSET -0.000365377 -7.74988 -0.20057
                        CHANNELS 6 Xposition Yposition Zposition Zrotation Xrotation Yrotation
                        JOINT RightHandRing2
                        {
                          OFFSET 0.000678042 -3.8 -0.000254587
                          CHANNELS 6 Xposition Yposition Zposition Zrotation Xrotation Yrotation
                          JOINT RightHandRing3
                          {
                            OFFSET -0.00110412 -3.40088 0.0013974
                            CHANNELS 6 Xposition Yposition Zposition Zrotation Xrotation Yrotation
                            End Site
                            {
                              OFFSET -0.000658724 -2.5999 0.00102115
                            }
                          }
                        }
                      }
                    }
                    JOINT RightHandPinky
                    {
                      OFFSET 0.749892 -1.7487 -1.84943
                      CHANNELS 6 Xposition Yposition Zposition Zrotation Xrotation Yrotation
                      JOINT RightHandPinky1
                      {
                        OFFSET -0.00131677 -7.15302 -0.999162
                        CHANNELS 6 Xposition Yposition Zposition Zrotation Xrotation Yrotation
                        JOINT RightHandPinky2
                        {
                          OFFSET -0.0250233 -3.0027 0.00557317
                          CHANNELS 6 Xposition Yposition Zposition Zrotation Xrotation Yrotation
                          JOINT RightHandPinky3
                          {
                            OFFSET 7.04607e-05 -2.34979 -8.12283e-05
                            CHANNELS 6 Xposition Yposition Zposition Zrotation Xrotation Yrotation
                            End Site
                            {
                              OFFSET -0.000310914 -2.09995 0.000246229
                            }
                          }
                        }
                      }
                    }
                  }
                }
              }
            }
          }
        }
      }
    }
  }
  JOINT LeftUpLeg
  {
    OFFSET 8 0 6.36683e-05
    CHANNELS 6 Xposition Yposition Zposition Zrotation Xrotation Yrotation
    JOINT LeftLeg
    {
      OFFSET -0.000226232 -44.9999 -1.00001
      CHANNELS 6 Xposition Yposition Zposition Zrotation Xrotation Yrotation
      JOINT LeftFoot
      {
        OFFSET -0.00179898 -40.9995 -2.00262
        CHANNELS 6 Xposition Yposition Zposition Zrotation Xrotation Yrotation
        JOINT LeftToeBase
        {
          OFFSET -0.000253235 -7.49995 12.5
          CHANNELS 6 Xposition Yposition Zposition Zrotation Xrotation Yrotation
          JOINT LeftFootToe
          {
            OFFSET 0 0 4
            CHANNELS 6 Xposition Yposition Zposition Zrotation Xrotation Yrotation
            End Site
            {
              OFFSET 0 0 0
            }
          }
        }
      }
    }
  }
  JOINT RightUpLeg
  {
    OFFSET -8 0 -6.36683e-05
    CHANNELS 6 Xposition Yposition Zposition Zrotation Xrotation Yrotation
    JOINT RightLeg
    {
      OFFSET -0.00349576 -44.9957 -1.00177
      CHANNELS 6 Xposition Yposition Zposition Zrotation Xrotation Yrotation
      JOINT RightFoot
      {
        OFFSET 0.0112932 -41.0337 -1.99564
        CHANNELS 6 Xposition Yposition Zposition Zrotation Xrotation Yrotation
        JOINT RightToeBase
        {
          OFFSET 0.000245431 -7.50018 12.4996
          CHANNELS 6 Xposition Yposition Zposition Zrotation Xrotation Yrotation
          JOINT RightFootToe
          {
            OFFSET 0 0 4
            CHANNELS 6 Xposition Yposition Zposition Zrotation Xrotation Yrotation
            End Site
            {
              OFFSET 0 0 0
            }
          }
        }
      }
    }
  }
}
MOTION
Frames:	3
Frame Time:	0.0111111
-429.944 91.683 1437.5 3.11622 4.938 -122.846 -2.27374e-13 8 5.68434e-14 7.84848 4.24735 14.3768 0 8 -1.13687e-13 -0.635618 1.77788 6.58806 0 8 1.13687e-13 -0.295376 0.902979 3.30808 2.27374e-13 8 8.52651e-14 -0.286298 0.897225 3.29905 0 17 0 0.671085 0.869319 8.06239 2.27374e-13 10.8 0 -3.20679 -10.3435 18.702 5 17 5.68434e-14 0.745947 4.11583 -5.7222 6.45 -4.26326e-14 0 -0.685234 -0.613739 1.75498 6.45 -5.68434e-14 -1.13687e-13 13.4701 -15.8389 21.7803 -2.27374e-13 -32.4 -2 -79.7105 -38.3893 -55.0511 0 -25.65 2 15.717 10.0366 21.9311 -0.5 -1.5 2.65 -15.0373 -27.1974 3.12876 0 -3.8 3.7 15.3352 27.5957 3.48316 2.27374e-13 -3 2.7 0.028466 0.00143558 0.0141713 2.27374e-13 -1.9 1.6 1.06843e-06 -9.74244e-07 -9.05516e-07 0 -8.3 1.9 -1.88555 8.60207 0.232652 4.54747e-13 -4.5 -1.13687e-13 -63.3724 -0.0030497 -0.0287516 -1.13687e-13 -3.4 0 -45.13 -0.00951609 -0.0200566 -0.25 -2.2 0.4 1.06843e-06 -9.74244e-07 -9.05516e-07 4.54747e-13 -8.3 1 -30.5072 13.9265 4.59142 1.13687e-13 -4.65 0 -79.0914 -0.00589562 0.000731385 0 -3.3 2.27374e-13 -90.0002 1.12591e-05 -0.000104045 -0.5 -2.15 -0.8 1.06843e-06 -9.74244e-07 -9.05516e-07 -4.54747e-13 -7.75 -0.2 -38.4408 -2.08567 0.679016 0 -3.8 0 -0.412293 -0.00440236 0.000931138 0 -3.4 -2.27374e-13 -49.3183 -0.0221308 0.0097139 -0.75 -1.75 -1.85 1.06843e-06 -9.74244e-07 -9.05516e-07 0 -7.15 -1 -56.4218 1.41593 4.68041 -1.7053e-13 -3 -1.13687e-13 -0.0980124 0.00152351 -0.0176801 0 -2.35 -1.13687e-13 -0.0028915 0.000636429 -0.0132786 -5 17 -5.68434e-14 5.3701 5.55611 0.962711 -6.45 -8.52651e-14 -1.13687e-13 -1.48479 -0.266382 -3.12242 -6.45 -2.84217e-14 -5.68434e-14 -50.7299 13.7934 -3.47931 -1.13687e-13 -32.4 -2 95.2306 -48.3101 81.7466 -1.13687e-13 -25.65 2 -16.3434 11.5348 24.4583 0.5 -1.5 2.65 -124.247 71.4657 -66.3678 -1.13687e-13 -3.8 3.7 -23.99 42.5669 3.02705 0 -3 2.7 0.11961 36.2501 -0.0498738 0 -1.9 1.6 -7.57073e-07 1.25919e-05 -6.07416e-06 1.13687e-13 -8.3 1.9 0.025343 1.24069 0.0101386 0 -4.5 0 9.06499 1.97838 -0.0225987 4.54747e-13 -3.4 -2.27374e-13 8.35354 0.00191314 -0.00907786 0.25 -2.2 0.4 -7.57073e-07 1.25919e-05 -6.07416e-06 0 -8.3 1 9.15612 5.76408 -0.95844 0 -4.65 0 28.0805 12.8946 0.58775 1.13687e-13 -3.3 2.27374e-13 24.0384 0.0134567 -0.0135629 0.5 -2.15 -0.8 -7.57073e-07 1.25919e-05 -6.07416e-06 0 -7.75 -0.2 28.8877 9.78724 -4.03075 3.41061e-13 -3.8 0 19.3789 19.827 3.18483 1.13687e-13 -3.4 0 26.5504 -0.0246509 -0.00186191 0.75 -1.75 -1.85 -7.57073e-07 1.25919e-05 -6.07416e-06 0 -7.15 -1 44.6325 7.38564 -5.52218 -5.68434e-14 -3 0 20.8035 14.1841 1.09969 5.68434e-14 -2.35 0 21.8513 -0.00894556 -0.00179849 8 0 5.68434e-14 33.7845 -19.1826 33.0124 -2.27374e-13 -45 -1 -24.3714 20.2926 12.7385 0 -41 -2 11.0737 2.45145 -9.6 -2.27374e-13 -7.5 12.5 -0.000442326 -0.310864 0.0774391 0 0 4 0.983954 -7.05882 4.11187 -8 0 -5.68434e-14 22.2516 -24.3865 -43.8967 0 -45 -1 -41.9324 -2.21097 15.9374 0 -41 -2 21.6144 5.23449 -16.341 0 -7.5 12.5 0.00154416 0.233695 0.000891246 0 0 4 0.134527 0.101098 98.7793 
-429.946 91.6832 1437.49 3.11241 4.93961 -122.806 2.27374e-13 8 5.68434e-14 7.85011 4.25044 14.3857 0 8 -1.7053e-13 -0.635781 1.78072 6.58886 0 8 5.68434e-14 -0.294957 0.903786 3.30828 2.27374e-13 8 1.42109e-13 -0.286519 0.898531 3.29933 -2.27374e-13 17 0 0.657649 0.866487 8.05585 2.27374e-13 10.8 5.68434e-14 -3.23985 -10.3442 18.6812 5 17 0 0.745469 4.10396 -5.70643 6.45 -1.42109e-14 2.84217e-14 -0.687048 -0.613308 1.75164 6.45 -5.68434e-14 -2.84217e-14 13.4588 -15.945 21.6828 0 -32.4 -2 -79.7926 -38.3466 -55.114 -2.27374e-13 -25.65 2 16.4288 10.0523 21.9004 -0.5 -1.5 2.65 -15.4185 -27.2169 3.0402 0 -3.8 3.7 15.3157 27.5743 3.48752 2.27374e-13 -3 2.7 0.0307186 0.00143534 0.0159095 2.27374e-13 -1.9 1.6 1.06843e-06 -9.74244e-07 -9.05516e-07 0 -8.3 1.9 -1.94122 8.79861 0.242439 0 -4.5 0 -64.6111 -0.00323766 -0.0313522 2.84217e-14 -3.4 0 -46.2536 -0.00980228 -0.0204386 -0.25 -2.2 0.4 1.06843e-06 -9.74244e-07 -9.05516e-07 2.27374e-13 -8.3 1 -30.988 14.0672 4.71625 1.13687e-13 -4.65 0 -79.5799 -0.00640413 0.000550891 1.13687e-13 -3.3 1.13687e-13 -90.0002 1.12591e-05 -0.000104045 -0.5 -2.15 -0.8 1.06843e-06 -9.74244e-07 -9.05516e-07 -4.54747e-13 -7.75 -0.2 -38.69 -1.6669 0.832941 0 -3.8 1.13687e-13 -0.680878 -0.00377719 0.00362857 -1.13687e-13 -3.4 -2.27374e-13 -50.9914 -0.0222762 0.0105452 -0.75 -1.75 -1.85 1.06843e-06 -9.74244e-07 -9.05516e-07 0 -7.15 -1 -56.9265 1.67973 4.90286 -1.13687e-13 -3 1.13687e-13 -0.097573 0.00145853 -0.0158 0 -2.35 0 -0.00245357 0.000797772 -0.0128668 -5 17 -5.68434e-14 5.348 5.55749 0.96237 -6.45 -5.68434e-14 -1.7053e-13 -1.4795 -0.266108 -3.12209 -6.45 -2.84217e-14 -5.68434e-14 -50.7306 13.794 -3.49484 0 -32.4 -2 95.2556 -48.1842 81.5817 -2.27374e-13 -25.65 2 -16.5592 11.2756 24.6258 0.5 -1.5 2.65 -124.407 71.3659 -66.084 -1.13687e-13 -3.8 3.7 -23.9884 42.5676 3.02586 0 -3 2.7 0.120448 36.2501 -0.0498556 0 -1.9 1.6 -7.57073e-07 1.25919e-05 -6.07416e-06 1.13687e-13 -8.3 1.9 0.0352398 1.4511 0.00972889 0 -4.5 0 9.88627 2.15674 -0.0229829 4.54747e-13 -3.4 0 9.0354 -0.00344049 -0.00917854 0.25 -2.2 0.4 -7.57073e-07 1.25919e-05 -6.07416e-06 0 -8.3 1 8.99034 6.08095 -0.961398 0 -4.65 0 28.3869 13.0743 0.605479 0 -3.3 -4.54747e-13 24.268 0.0132671 -0.0130468 0.5 -2.15 -0.8 -7.57073e-07 1.25919e-05 -6.07416e-06 2.27374e-13 -7.75 -0.2 28.5344 10.0611 -4.03877 3.41061e-13 -3.8 0 19.4681 19.9685 3.23844 1.7053e-13 -3.4 0 26.6927 -0.0246509 0.000501497 0.75 -1.75 -1.85 -7.57073e-07 1.25919e-05 -6.07416e-06 0 -7.15 -1 44.5029 7.4232 -5.51147 -1.13687e-13 -3 0 20.9822 14.3353 1.12557 5.68434e-14 -2.35 0 22.0185 -0.00696075 -0.000796094 8 -2.84217e-14 1.13687e-13 33.779 -19.186 33.0132 2.27374e-13 -45 -1 -24.3702 20.2905 12.7404 2.27374e-13 -41 -2 11.0786 2.45288 -9.63129 -2.27374e-13 -7.5 12.5 -0.00044352 -0.310437 0.0773252 0 0 4 0.983964 -7.05861 4.11179 -8 0 -5.68434e-14 22.2503 -24.3909 -43.9022 0 -45 -1 -41.9351 -2.20049 15.9529 0 -41 -2 21.6135 5.21732 -16.3722 0 -7.5 12.5 0.00154417 0.233283 0.000891246 0 -2.84217e-14 4 0.103789 0.0998064 98.7791 
-429.949 91.6833 1437.48 3.1085 4.94132 -122.765 0 8 1.7053e-13 7.85308 4.25264 14.3965 0 8 -5.68434e-14 -0.635857 1.78333 6.59002 -2.27374e-13 8 1.13687e-13 -0.294503 0.90462 3.30851 0 8 1.13687e-13 -0.286734 0.899819 3.29961 2.27374e-13 17 -1.13687e-13 0.64587 0.867195 8.04749 0 10.8 0 -3.27342 -10.336 18.6568 5 17 5.68434e-14 0.749792 4.0921 -5.68985 6.45 1.42109e-14 2.84217e-14 -0.687647 -0.612879 1.7508 6.45 -9.9476e-14 -5.68434e-14 13.4373 -16.0531 21.5601 0 -32.4 -2 -79.8615 -38.3153 -55.1662 0 -25.65 2 17.0443 10.0555 21.8806 -0.5 -1.5 2.65 -15.7602 -27.1836 2.97727 -2.27374e-13 -3.8 3.7 15.2497 27.5013 3.50241 0 -3 2.7 0.0328966 0.00143509 0.0176511 2.27374e-13 -1.9 1.6 1.06843e-06 -9.74244e-07 -9.05516e-07 0 -8.3 1.9 -2.02694 9.00009 0.25503 2.27374e-13 -4.5 0 -65.5561 -0.00345201 -0.0339001 -5.68434e-14 -3.4 -1.13687e-13 -47.1262 -0.0101036 -0.0208345 -0.25 -2.2 0.4 1.06843e-06 -9.74244e-07 -9.05516e-07 4.54747e-13 -8.3 1 -31.3911 14.1783 4.81897 0 -4.65 0 -80.0423 -0.00697333 0.000437825 1.13687e-13 -3.3 2.27374e-13 -90.0002 1.12591e-05 -0.000104045 -0.5 -2.15 -0.8 1.06843e-06 -9.74244e-07 -9.05516e-07 -2.27374e-13 -7.75 -0.2 -38.8431 -1.26855 0.975496 0 -3.8 1.13687e-13 -1.24745 -0.00313587 0.0076837 -1.13687e-13 -3.4 -3.41061e-13 -52.7883 -0.0224088 0.0114541 -0.75 -1.75 -1.85 1.06843e-06 -9.74244e-07 -9.05516e-07 -2.27374e-13 -7.15 -1 -57.2952 1.93553 5.09964 -2.27374e-13 -3 0 -0.0970371 0.00135685 -0.0141608 -5.68434e-14 -2.35 0 -0.00191837 0.000899258 -0.0123357 -5 17 -5.68434e-14 5.32836 5.55622 0.959511 -6.45 -2.84217e-14 -1.7053e-13 -1.47404 -0.265842 -3.12174 -6.45 -2.84217e-14 -1.13687e-13 -50.7281 13.7708 -3.48107 0 -32.4 -2 95.1768 -48.0369 81.2781 -1.13687e-13 -25.65 2 -16.6482 11.0331 24.6412 0.5 -1.5 2.65 -124.345 71.1718 -66.189 -1.7053e-13 -3.8 3.7 -23.9868 42.5682 3.02466 0 -3 2.7 0.121246 36.2501 -0.0498366 0 -1.9 1.6 -7.57073e-07 1.25919e-05 -6.07416e-06 1.13687e-13 -8.3 1.9 0.0453568 1.6625 0.00924948 0 -4.5 0 10.5501 2.30098 -0.0234314 5.68434e-13 -3.4 0 9.58056 -0.00606742 -0.00928344 0.25 -2.2 0.4 -7.57073e-07 1.25919e-05 -6.07416e-06 -1.13687e-13 -8.3 1 8.83783 6.38728 -0.965478 0 -4.65 -2.27374e-13 28.5346 13.1611 0.613717 0 -3.3 0 24.3786 0.013698 -0.0135988 0.5 -2.15 -0.8 -7.57073e-07 1.25919e-05 -6.07416e-06 0 -7.75 -0.2 28.3016 10.3125 -4.05969 2.27374e-13 -3.8 0 19.5022 20.0221 3.25862 1.13687e-13 -3.4 0 26.7471 -0.0246509 0.00190296 0.75 -1.75 -1.85 -7.57073e-07 1.25919e-05 -6.07416e-06 0 -7.15 -1 44.5026 7.38139 -5.4926 -5.68434e-14 -3 0 21.0818 14.418 1.13893 0 -2.35 -2.27374e-13 22.1112 -0.00501806 -0.000514475 8 -2.84217e-14 1.13687e-13 33.773 -19.1907 33.0097 0 -45 -1 -24.369 20.2886 12.7426 0 -41 -2 11.0838 2.45471 -9.65938 -2.27374e-13 -7.5 12.5 -0.000444716 -0.310008 0.077211 0 0 4 0.983971 -7.05843 4.11171 -8 -2.84217e-14 -5.68434e-14 22.2482 -24.3954 -43.9083 0 -45 -1 -41.9376 -2.18979 15.9691 0 -41 -2 21.6125 5.19924 -16.4036 0 -7.5 12.5 0.00154417 0.23287 0.000891246 -1.13687e-13 0 4 0.0723545 0.0980348 98.779 
